# xmcd
#
# Track frame offsets:
#	150
#	29443
#	45610
#	56244
#	88221
#	98491
#	111420
#	125141
#	139434
#	151386
#	179950
#	197113
#	213332
#	228764
#	244435
#	259141
#
# Disc length: 3634
#
# Revision: 1
# Processed by: cddbd v1.5.1PL0 Copyright (c) Steve Scherf et al.
# Submitted via: CDex 1.51
# Normalized: r0:DSETVAR1
#
DISCID=f90e3010
DTITLE=Various Artist - STEPS TO VILLAGE VOL2
DYEAR=1900
DGENRE=Jazz
TTITLE0=MILES DAVIS - Walkin'
TTITLE1=GLENN MILLER - In The Mood
TTITLE2=BILLIE HOLIDAY - Lover Come Back To ME
TTITLE3=GEORGE BENSON - Love For Sale
TTITLE4=TONY BENNETT WITH THE COUNT BASIE ORCHESTRA - Anythig Goes
TTITLE5=DUKE ELLINGTON - Take The "A " Train
TTITLE6=ELLA FITZGERALD - Sing,Song,Swing
TTITLE7=LIONEL HAMPTON - Drum Stomp(Crazy Rhythm)
TTITLE8=NAT KING COLE - Nature Boy
TTITLE9=AHMAD JAMAL - Waltz For Debby
TTITLE10=CARMEN MCRAE - That Old Balck Magic
TTITLE11=DIZZY GILLESPIE - Desafinado
TTITLE12=FATS WALLER - Honysuckle Rose
TTITLE13=WYNTON KELLY - Come Rain Or Come Shine
TTITLE14=COUNT BASIE - Easy Tub
TTITLE15=CHALIE PARKER - Scrapple From The Apple
EXTD=
EXTT0=
EXTT1=
EXTT2=
EXTT3=
EXTT4=
EXTT5=
EXTT6=
EXTT7=
EXTT8=
EXTT9=
EXTT10=
EXTT11=
EXTT12=
EXTT13=
EXTT14=
EXTT15=
PLAYORDER=
